<?xml version="1.0" encoding="utf-8"?>
<!-- Generator: Adobe Illustrator 28.2.0, SVG Export Plug-In . SVG Version: 6.00 Build 0)  -->
<svg version="1.1" id="Layer_1" xmlns="http://www.w3.org/2000/svg" xmlns:xlink="http://www.w3.org/1999/xlink" x="0px" y="0px"
	 viewBox="0 0 28 25" style="enable-background:new 0 0 28 25;" xml:space="preserve">
<style type="text/css">
	.st0{fill:#FBB040;stroke:#231F20;stroke-width:0.8294;stroke-linejoin:round;stroke-miterlimit:10;}
	.st1{fill:#FFFFFF;stroke:#231F20;stroke-width:0.8294;stroke-linecap:round;stroke-linejoin:round;stroke-miterlimit:10;}
	.st2{fill:none;stroke:#231F20;stroke-width:0.8294;stroke-linejoin:round;stroke-miterlimit:10;}
	.st3{fill:none;stroke:#231F20;stroke-width:0.5529;stroke-linecap:round;stroke-miterlimit:10;}
</style>
<g>
	<path class="st0" d="M17.8,4.1C20.2,4,22.6,3.8,25,3.7c0,0,0,0,0.1,0c0.4,0.1,1,0.4,1.3,1c0.1,0.3,0.1,0.5,0.1,0.6
		c0,0.8,0,2.4,0.2,5c0,0,0,0,0,0.1c-0.2,0.4-0.4,0.9-0.9,1c-0.2,0.1-0.4,0.1-0.4,0.1c-0.6,0-2.6,0.1-6.2,0.4c0,0,0,0-0.1,0
		c-0.2-0.1-0.7-0.4-0.9-1c-0.1-0.3-0.1-0.5-0.1-0.6c0-0.8,0-3-0.2-6.1c0,0,0,0,0,0C17.8,4.2,17.8,4.1,17.8,4.1z"/>
	<path class="st1" d="M5.9,21.6c0.7-2.3,0.3-3.4,0.3-3.4c0,0-0.1-0.1-0.1-0.3c-0.2-0.5-0.6-1.2-0.9-1.9C5,15.5,5,15.2,4.9,14.8
		c-0.3-2.2-0.5-3.3-0.6-5c-0.2-1.8-0.5-2.2-0.2-3c0.1-0.3,0.4-1.3,1.3-1.9c0.5-0.3,1-0.4,1.3-0.4c3.4-0.4,6.8-0.7,10.2-1.1
		c0.3,0,0.6,0,0.8,0.2c0.1,0.1,0.2,0.2,0.3,0.4c0.1,0.2,0.1,0.3,0.1,0.4c0,0.5,0.1,2.4,0.1,5c0,0,0,0.1,0,0.1c0.1,0.5,0.1,1,0.2,1.5
		c0,0.4,0.3,0.8,0.6,1c0.5,0.3,1,0.6,1.4,1.2c0.3,0.4,0.7,1,0.5,1.5c-0.3,0.7-1.5,0.4-1.9,1.2c-0.2,0.4,0.1,0.6,0.2,2.2
		c0.1,1.3,0,1.5-0.1,1.6c-0.4,0.6-1.2,0.7-1.7,0.8c-2.9,0.3-5,0.3-5.7,0.4"/>
	<g>
		<path class="st2" d="M12.1,15.4c-0.1-0.1-0.2-0.1-0.2,0c-0.2,0.7-0.7,1.2-1.4,1.3c-0.9,0.1-2-0.6-1.9-1.3c0-0.1,0-0.2,0.1-0.3
			c0-0.1,0-0.2-0.1-0.2c-0.6,0.1-1.1,0-1.5-0.3c-0.4-0.4-0.4-0.8-0.4-0.9c0-0.1,0-0.8,0.4-1c0.2-0.1,0.5,0,0.6,0
			c-0.6-0.1-1-0.7-1-1.3c0.1-0.6,0.6-1,1.2-1c0.6,0,1,0.5,1,0.5c-0.6-0.6-0.6-1.5-0.2-2.1c0.6-0.7,1.6-0.5,1.6-0.5
			c0.6,0.1,1,0.6,1.2,0.9c0.1,0.1,0.2,0.1,0.2,0c0.1-0.2,0.2-0.4,0.4-0.6c0.5-0.4,1.1-0.3,1.3-0.3c0.5,0.1,1.3,0.4,1.4,1.1
			c0,0.2,0,0.4-0.1,0.6c-0.1,0.1,0.1,0.2,0.2,0.2c0.5-0.2,1.1-0.3,1.5,0.3c0.5,0.9-0.1,1.7-0.5,2c-0.1,0.1,0,0.2,0,0.2
			c0.3,0.2,1,0.6,0.7,1.4c-0.4,1.1-1.7,0.5-1.7,0.5v0.1c0,0,0.7,1-0.1,1.6C14,16.9,12.6,16.3,12.1,15.4z"/>
		<line class="st2" x1="11.5" y1="9" x2="11.9" y2="15.7"/>
	</g>
	<line class="st3" x1="20.7" y1="6.5" x2="23.6" y2="6.4"/>
	<line class="st3" x1="20.7" y1="7.8" x2="23.6" y2="7.7"/>
	<line class="st3" x1="20.7" y1="9.3" x2="23.6" y2="9.1"/>
</g>
</svg>
