<?xml version="1.0" encoding="utf-8"?>
<!-- Generator: Adobe Illustrator 28.2.0, SVG Export Plug-In . SVG Version: 6.00 Build 0)  -->
<svg version="1.1" id="Layer_1" xmlns="http://www.w3.org/2000/svg" xmlns:xlink="http://www.w3.org/1999/xlink" x="0px" y="0px"
	 viewBox="0 0 146 24" style="enable-background:new 0 0 146 24;" xml:space="preserve">
<style type="text/css">
	.st0{fill:#FBB040;stroke:#FFFFFF;stroke-width:0.9469;stroke-linejoin:round;stroke-miterlimit:10;}
	.st1{fill:none;stroke:#FFFFFF;stroke-width:0.9469;stroke-linecap:round;stroke-linejoin:round;stroke-miterlimit:10;}
	.st2{fill:none;stroke:#FFFFFF;stroke-width:0.9469;stroke-linejoin:round;stroke-miterlimit:10;}
	.st3{fill:none;stroke:#FFFFFF;stroke-width:0.6313;stroke-linecap:round;stroke-miterlimit:10;}
	.st4{fill:#FFFFFF;}
</style>
<g>
	<path class="st0" d="M20.1,3c2.7-0.2,5.4-0.3,8.1-0.5c0,0,0,0,0.1,0c0.5,0.2,1.2,0.5,1.4,1.2c0.1,0.3,0.1,0.6,0.1,0.7
		c-0.1,0.9,0,2.7,0.2,5.7c0,0,0,0,0,0.1c-0.2,0.4-0.5,1-1,1.2c-0.2,0.1-0.4,0.1-0.5,0.1c-0.6,0-2.9,0.1-7.1,0.5h-0.1
		c-0.2-0.1-0.8-0.5-1-1.1c-0.1-0.3-0.1-0.6-0.1-0.7c0-0.9-0.1-3.4-0.3-7c0,0,0,0,0-0.1C20,3,20.1,3,20.1,3z"/>
	<path class="st1" d="M6,23c0.8-2.7,0.3-3.9,0.3-3.9S6.2,19,6.1,18.8c-0.3-0.5-0.7-1.4-1-2.2C5,16,5,15.6,4.9,15.1
		c-0.4-2.5-0.6-3.8-0.7-5.7C4,7.3,3.7,6.9,3.9,6C4,5.6,4.3,4.5,5.4,3.9C6,3.5,6.6,3.4,6.9,3.4c3.9-0.4,7.8-0.8,11.7-1.2
		c0.3,0,0.7,0,0.9,0.2c0.1,0.1,0.3,0.2,0.4,0.4c0,0.1,0.1,0.3,0.1,0.4c0,0.6,0.1,2.8,0.1,5.7V9c0.1,0.6,0.1,1.2,0.2,1.8
		c0.1,0.5,0.3,0.9,0.7,1.1c0.5,0.3,1.1,0.7,1.6,1.4c0.4,0.5,0.8,1.1,0.6,1.7c-0.3,0.8-1.7,0.5-2.2,1.4c-0.3,0.5,0.1,0.7,0.2,2.5
		c0.1,1.4,0,1.7-0.1,1.9c-0.4,0.7-1.4,0.8-1.9,0.9c-3.3,0.4-5.7,0.3-6.6,0.4"/>
	<g>
		<path class="st2" d="M13.1,15.9c-0.1-0.1-0.2-0.1-0.3,0c-0.2,0.8-0.8,1.4-1.6,1.5c-1,0.2-2.2-0.7-2.2-1.5c0-0.1,0-0.2,0.1-0.3
			S9,15.4,8.9,15.4c-0.6,0.2-1.3,0-1.7-0.4c-0.4-0.4-0.4-1-0.4-1c0-0.2-0.1-0.9,0.4-1.2c0.3-0.1,0.6,0,0.7,0
			c-0.7-0.1-1.2-0.8-1.1-1.5s0.7-1.1,1.3-1.1c0.7,0,1.1,0.6,1.2,0.6C8.7,10.1,8.6,9,9.2,8.4c0.6-0.8,1.8-0.6,1.9-0.6
			c0.7,0.1,1.1,0.7,1.3,1c0.1,0.1,0.2,0.1,0.3,0c0.1-0.2,0.3-0.5,0.5-0.7c0.6-0.5,1.3-0.4,1.4-0.4C15.1,7.8,16,8.2,16.1,9
			c0,0.3,0,0.5-0.1,0.7c-0.1,0.1,0.1,0.3,0.2,0.2c0.5-0.2,1.3-0.4,1.7,0.4c0.6,1-0.2,2-0.5,2.3c-0.1,0.1,0,0.2,0,0.2
			c0.4,0.2,1.2,0.7,0.8,1.7c-0.5,1.3-1.9,0.6-1.9,0.6v0.1c0,0,0.8,1.1-0.1,1.8C15.3,17.5,13.7,16.8,13.1,15.9z"/>
		<line class="st2" x1="12.5" y1="8.6" x2="12.9" y2="16.2"/>
	</g>
	<line class="st3" x1="22.9" y1="5.7" x2="26.2" y2="5.6"/>
	<line class="st3" x1="22.9" y1="7.2" x2="26.2" y2="7.1"/>
	<line class="st3" x1="22.9" y1="8.8" x2="26.2" y2="8.7"/>
</g>
<g>
	<g>
		<path class="st4" d="M35.6,17.9h-3.4V5.8h4.6l2.2,5l1.2,3.1h0.2l1.1-3.1l2.1-5h4.6v12.1h-3.4v-5l0.1-2h-0.2l-0.7,2l-1.8,4.3h-4.1
			l-1.8-4.3l-0.7-2h-0.2l0.1,2v5H35.6z"/>
		<path class="st4" d="M52.8,17.9h-3.4V5.8h3.4V17.9z M60.1,8.9h-9.8v-3h9.8V8.9z M59.8,13.3h-9.5v-3h9.5V13.3z M60.1,17.9h-9.8v-3
			h9.8V17.9z"/>
		<path class="st4" d="M64.4,17.9H61V5.8h4.6l2.2,5L69,14h0.2l1.1-3.1l2.1-5H77V18h-3.4v-5l0.1-2h-0.2l-0.7,2L71,17.3h-4L65.2,13
			l-0.7-2h-0.2l0.1,2V17.9z"/>
		<path class="st4" d="M84.7,18.1c-1.4,0-2.6-0.3-3.6-0.8s-1.8-1.2-2.3-2.2c-0.5-0.9-0.8-2-0.8-3.3s0.3-2.4,0.8-3.3s1.3-1.6,2.3-2.2
			c1-0.5,2.2-0.8,3.6-0.8s2.7,0.3,3.7,0.8s1.8,1.2,2.3,2.2c0.5,0.9,0.8,2,0.8,3.3s-0.3,2.4-0.8,3.3s-1.3,1.7-2.3,2.2
			S86.1,18.1,84.7,18.1z M84.7,14.8c0.8,0,1.5-0.1,1.9-0.2s0.8-0.5,1-0.9s0.3-1,0.3-1.8s-0.1-1.4-0.3-1.8c-0.2-0.4-0.5-0.7-1-0.9
			S85.5,9,84.7,9s-1.4,0.1-1.9,0.2C82.3,9.3,82,9.6,81.9,10c-0.2,0.4-0.3,1-0.3,1.8s0.1,1.4,0.3,1.8c0.2,0.4,0.5,0.7,0.9,0.9
			C83.2,14.8,83.9,14.8,84.7,14.8z"/>
		<path class="st4" d="M95.7,17.9h-3.4V5.8h7c1.1,0,2,0.1,2.7,0.4s1.3,0.7,1.6,1.3s0.5,1.2,0.5,2c0,0.6-0.1,1.2-0.3,1.6
			c-0.2,0.5-0.6,0.8-1.1,1.1s-1.1,0.5-1.9,0.6V13c0.6,0.2,1.1,0.4,1.3,0.7c0.3,0.3,0.5,0.7,0.7,1.1l1.5,3h-3.9l-1.4-3
			c-0.1-0.3-0.3-0.5-0.5-0.7s-0.4-0.3-0.6-0.4c-0.3-0.1-0.6-0.1-1-0.1h-1.4v4.3H95.7z M95.7,8.9v2.4h3.6c0.5,0,0.8-0.1,1-0.2
			s0.3-0.5,0.3-1s-0.1-0.8-0.3-1c-0.2-0.2-0.6-0.2-1-0.2H95.7z"/>
		<path class="st4" d="M108.5,17.9h-3.4V5.8h3.4V17.9z"/>
		<path class="st4" d="M121.1,17.9h-11.6v-3l6.4-5.7V8.9h-6.3v-3H121v3l-6.7,5.7v0.2h6.8C121.1,14.8,121.1,17.9,121.1,17.9z"/>
		<path class="st4" d="M125.5,17.9h-3.4V5.8h3.4V17.9z M132.8,8.9H123v-3h9.8V8.9z M132.5,13.3H123v-3h9.5V13.3z M132.8,17.9H123v-3
			h9.8V17.9z"/>
		<path class="st4" d="M137.1,17.9h-3.4V5.8h7c1.1,0,2,0.1,2.7,0.4s1.3,0.7,1.6,1.3s0.5,1.2,0.5,2c0,0.6-0.1,1.2-0.3,1.6
			c-0.2,0.5-0.6,0.8-1.1,1.1s-1.1,0.5-1.9,0.6V13c0.6,0.2,1.1,0.4,1.3,0.7c0.3,0.3,0.5,0.7,0.7,1.1l1.5,3h-3.9l-1.4-3
			c-0.1-0.3-0.3-0.5-0.5-0.7s-0.4-0.3-0.6-0.4c-0.3-0.1-0.6-0.1-1-0.1h-1.4v4.3H137.1z M137.1,8.9v2.4h3.6c0.5,0,0.8-0.1,1-0.2
			s0.3-0.5,0.3-1s-0.1-0.8-0.3-1s-0.6-0.2-1-0.2H137.1z"/>
	</g>
</g>
</svg>
